<svg xmlns="http://www.w3.org/2000/svg" width="960" height="751.286" viewBox="0 0 960 751.286" xmlns:xlink="http://www.w3.org/1999/xlink" role="img" artist="Katerina Limpitsouni" source="https://undraw.co/"><g transform="translate(-473.018 -293.802)"><g transform="translate(520.704 925.815)"><path d="M223.124,699.49a26.478,26.478,0,0,0,25.569-4.5c8.955-7.517,11.764-19.9,14.048-31.363l6.757-33.916-14.147,9.741c-10.175,7.005-20.577,14.236-27.622,24.382s-10.117,24-4.459,34.978" transform="translate(-220.108 -633.707)" fill="#e6e6e6"/><path d="M225.12,740.44c-1.781-12.973-3.613-26.113-2.361-39.225,1.11-11.645,4.662-23.017,11.9-32.345a53.805,53.805,0,0,1,13.8-12.51c1.38-.871,2.651,1.316,1.276,2.184A51.153,51.153,0,0,0,229.5,682.957c-4.405,11.2-5.113,23.418-4.354,35.32.459,7.2,1.433,14.348,2.412,21.49a1.31,1.31,0,0,1-.884,1.556,1.272,1.272,0,0,1-1.555-.884Z" transform="translate(-219.92 -631.234)" fill="#f2f2f2"/><path d="M236.6,716a19.492,19.492,0,0,0,16.983,8.768c8.6-.408,15.766-6.408,22.216-12.105l19.083-16.849-12.63-.6c-9.083-.435-18.4-.843-27.051,1.961s-16.629,9.542-18.211,18.5" transform="translate(-218.587 -627.613)" fill="#e6e6e6"/><path d="M220.294,743.4c8.573-15.168,18.515-32.026,36.283-37.414a40.489,40.489,0,0,1,15.26-1.576c1.62.14,1.216,2.637-.4,2.5a37.613,37.613,0,0,0-24.354,6.443c-6.867,4.674-12.214,11.173-16.739,18.063-2.772,4.221-5.255,8.621-7.738,13.016C221.811,745.836,219.491,744.822,220.294,743.4Z" transform="translate(-220.127 -626.738)" fill="#f2f2f2"/></g><path d="M1012.733,712.981a19.492,19.492,0,0,1-18.66,4.136c-8.21-2.592-13.6-10.224-18.385-17.381l-14.143-21.167,12.365,2.643c8.892,1.9,18,3.887,25.651,8.81s13.638,13.475,12.879,22.537" transform="translate(297.717 297.719)" fill="#e6e6e6"/><path d="M1021.053,743.559c-4.411-16.855-9.715-35.694-25.516-45.445a40.484,40.484,0,0,0-14.35-5.424c-1.6-.279-1.849,2.239-.25,2.518a37.613,37.613,0,0,1,21.9,12.453c5.444,6.274,8.953,13.923,11.566,21.742,1.6,4.79,2.877,9.678,4.154,14.561C1018.964,745.525,1021.466,745.138,1021.053,743.559Z" transform="translate(299.429 299.037)" fill="#f2f2f2"/><path d="M884.113,437.277H595.079c-4.806,0-8.7-.98-8.706-2.189V410.576c.006-1.208,3.9-2.187,8.706-2.189H884.113c4.806,0,8.7.98,8.706,2.189v24.512c-.006,1.208-3.9,2.187-8.706,2.189Z" transform="translate(262.645 275.418)" fill="#f1f1f1"/><path d="M774.5,321.4l-.32-.236-.008-.006a3.911,3.911,0,0,0-5.471.808l-65.058,87.594h-7.158V407.88a1.564,1.564,0,0,0-1.564-1.564h-4.27a1.564,1.564,0,0,0-1.564,1.564v1.682h-2.472V407.88a1.564,1.564,0,0,0-1.564-1.564h-4.27a1.564,1.564,0,0,0-1.564,1.564v1.682h-2.464V407.88a1.564,1.564,0,0,0-1.564-1.564h-4.27a1.564,1.564,0,0,0-1.564,1.564v1.682h-2.472V407.88a1.564,1.564,0,0,0-1.564-1.564h-4.271a1.564,1.564,0,0,0-1.564,1.564v1.682h-2.464V407.88a1.564,1.564,0,0,0-1.564-1.564h-4.27a1.564,1.564,0,0,0-1.564,1.564v1.681h-2.472V407.88a1.564,1.564,0,0,0-1.564-1.564H641.32a1.564,1.564,0,0,0-1.564,1.564v1.682h-2.472V407.88a1.564,1.564,0,0,0-1.564-1.564h-4.27a1.564,1.564,0,0,0-1.564,1.564v1.682h-2.464V407.88a1.564,1.564,0,0,0-1.564-1.564h-4.27a1.564,1.564,0,0,0-1.564,1.564v1.682h-2.472V407.88a1.564,1.564,0,0,0-1.564-1.564h-4.27a1.564,1.564,0,0,0-1.564,1.564v1.682h-2.464V407.88a1.564,1.564,0,0,0-1.564-1.564h-4.27a1.564,1.564,0,0,0-1.564,1.564v1.682h-3.1a3.911,3.911,0,0,0-3.911,3.911V417.2a3.911,3.911,0,0,0,3.911,3.911H703a5.827,5.827,0,0,0,5.705-4.644l.041.029,66.561-89.619.006-.008a3.911,3.911,0,0,0-.808-5.471Z" transform="translate(263.291 267.191)" fill="#090814"/><path d="M1034.111,741.575H128.46a1.1,1.1,0,0,1,0-2.187h905.651a1.1,1.1,0,0,1,0,2.187Z" transform="translate(345.518 303.513)" fill="#cbcbcb"/><path d="M324.087,28.89H9.476c-5.231,0-9.47-.98-9.476-2.189V2.189C.006.98,4.245,0,9.476,0H324.087c5.231,0,9.47.98,9.476,2.189V26.7c-.006,1.208-4.245,2.187-9.476,2.189Z" transform="translate(1016.689 709.338) rotate(90)" fill="#f1f1f1"/><g transform="translate(693.383 441.883)"><rect width="21.618" height="28.493" transform="translate(161.013 552.857)" fill="#ed9da0"/><path d="M656.129,507.509h45.952a26.5,26.5,0,0,0,11.414-2.6l8.47-4.071a5.089,5.089,0,0,0-.848-9.489l-17.48-4.836-29.9-15.713-.022.111c-.556,2.831-1.425,7.11-1.536,7.37-3.066,3.516-6.216,5.13-9.362,4.812-5.488-.556-9.135-6.9-9.171-6.957l-.028-.049-.055.006a3.638,3.638,0,0,0-2.825,1.541c-1.252,1.891-.488,4.793-.363,5.234-1.5,1.465-2.172,9.658-2.224,10.32-2.167,2.3-3.2,4.505-3.062,6.562a7.069,7.069,0,0,0,2.967,4.968,12.833,12.833,0,0,0,8.068,2.793Z" transform="translate(-491.426 93.506)" fill="#090814"/><rect width="21.618" height="28.493" transform="translate(31.229 573.26) rotate(-163.78)" fill="#ed9da0"/><path d="M774.552,495.438l44.124,12.836a26.5,26.5,0,0,0,11.686.692l9.272-1.544a5.088,5.088,0,0,0,1.832-9.342l-15.429-9.526-24.322-23.438-.052.1c-1.324,2.558-3.359,6.428-3.533,6.647-3.925,2.517-7.4,3.191-10.333,2-5.116-2.066-6.845-9.17-6.863-9.241l-.014-.055-.054-.01a3.639,3.639,0,0,0-3.143.689c-1.731,1.465-1.807,4.468-1.81,4.924-1.849.989-4.782,8.667-5.018,9.287-2.723,1.6-4.328,3.433-4.772,5.45a7.069,7.069,0,0,0,1.465,5.6,12.832,12.832,0,0,0,6.966,4.935Z" transform="translate(-766.026 91.694)" fill="#090814"/><path d="M709.709,71.643a35.144,35.144,0,1,1,45.676,33.537l-6.794,44.9-34.635-28.858a87.258,87.258,0,0,0,11.5-20.277,35.109,35.109,0,0,1-15.739-29.3Z" transform="translate(-629.714 -30.848)" fill="#ed9da0"/><path d="M718.654,228.574l-5.074-71.026a46.976,46.976,0,0,1,2.291-18.2l15.039-45.1,44.284,14.223,18.684,42.748,10.176,18.658a21.812,21.812,0,0,1-3.725,25.865l-6.451,6.45,8.993,32.984-.946-.033,1.269.165s60.126,180.879,57.968,334.708H783.988l-4.581-178.565L766,576.945l-101.7-5.857L718.65,228.574Z" transform="translate(-652.528 -14.315)" fill="#e6e6e6"/><path d="M704.784,119.082s1.642,12.456,16.847,12.859l30.843.825S726.4,69.313,737.127,76.461s39.31-22.82,39.31-22.82l8.436,15.82s20.149-7.3-2.182-25.168c0,0-26.65-20.6-54.94-8.23S704.784,119.082,704.784,119.082Z" transform="translate(-636.073 -32.106)" fill="#090814"/><path d="M797.45,231.312c.407-7.93-7.021-14.756-16.6-15.253a18.863,18.863,0,0,0-13.809,4.681l-.222-.011-56.79-5.881,4.26-56.363c1.576-10.9-1.485-21.891-12.221-24.356h0a21.172,21.172,0,0,0-25.92,20.731l.325,70.995a18.239,18.239,0,0,0,18.359,18.164l71.272-5.326a18.862,18.862,0,0,0,13.252,6.082c9.581.5,17.683-5.532,18.089-13.457Z" transform="translate(-604.009 -3.051)" fill="#ed9da0"/><path d="M787.514,134.885l-3.421,64.3-47.531-3.225,8.406-66.877" transform="translate(-671.768 -4.337)" fill="#e6e6e6"/></g><g transform="translate(1039.375 293.802)"><g transform="translate(0 15.554)"><path d="M0,0H393.637a0,0,0,0,1,0,0V186.238a4,4,0,0,1-4,4H4a4,4,0,0,1-4-4V0A0,0,0,0,1,0,0Z" transform="translate(0 0)" fill="#fff"/><path d="M7.952,7.952V181.911H385.691V7.952H7.952M0,0H393.644V185.887a3.976,3.976,0,0,1-3.976,3.976H3.976A3.976,3.976,0,0,1,0,185.887Z" transform="translate(0 0.351)" fill="#e6e6e6"/><g transform="translate(48.221 15.318)"><rect width="47.979" height="159.929" rx="4" transform="translate(0 0)" fill="#00A6F4"/><path d="M2.665,0H11.55a2.665,2.665,0,0,1,2.665,2.665V4.442A2.665,2.665,0,0,1,11.55,7.108H2.665A2.665,2.665,0,0,1,0,4.442V2.665A2.665,2.665,0,0,1,2.665,0Z" transform="translate(16.881 6.664)" fill="#fff"/><path d="M1.777,0H33.763A1.777,1.777,0,0,1,35.54,1.777V5.331a1.777,1.777,0,0,1-1.777,1.777H1.777A1.777,1.777,0,0,1,0,5.331V1.777A1.777,1.777,0,0,1,1.777,0Z" transform="translate(6.219 145.713)" fill="#fff"/><path d="M1.777,0H33.763A1.777,1.777,0,0,1,35.54,1.777V5.331a1.777,1.777,0,0,1-1.777,1.777H1.777A1.777,1.777,0,0,1,0,5.331V1.777A1.777,1.777,0,0,1,1.777,0Z" transform="translate(62.639 0)" fill="#f2f2f2"/><rect width="71.079" height="39.094" rx="8" transform="translate(62.639 16.881)" fill="#00A6F4"/><rect width="35.54" height="7.108" rx="3.554" transform="translate(6.219 20.88)" fill="#fff"/><rect width="234.562" height="29.32" rx="14.66" transform="translate(62.639 130.609)" fill="#f2f2f2"/><path d="M1.777,0H33.763A1.777,1.777,0,0,1,35.54,1.777V5.331a1.777,1.777,0,0,1-1.777,1.777H1.777A1.777,1.777,0,0,1,0,5.331V1.777A1.777,1.777,0,0,1,1.777,0Z" transform="translate(261.661 0)" fill="#00A6F4"/><rect width="35.54" height="7.108" rx="3.554" transform="translate(6.219 31.542)" fill="#fff" opacity="0.149"/><rect width="35.54" height="7.108" rx="3.554" transform="translate(6.219 42.203)" fill="#fff" opacity="0.149"/><rect width="35.54" height="7.108" rx="3.554" transform="translate(6.219 52.865)" fill="#fff" opacity="0.149"/><rect width="35.54" height="7.108" rx="3.554" transform="translate(6.219 63.527)" fill="#fff" opacity="0.149"/><rect width="71.079" height="39.094" rx="8" transform="translate(226.122 16.881)" fill="#00A6F4"/><rect width="71.079" height="39.094" rx="8" transform="translate(144.38 16.881)" fill="#00A6F4"/><rect width="234.562" height="29.32" rx="14.66" transform="translate(62.639 95.957)" fill="#f2f2f2"/><rect width="234.562" height="29.32" rx="14.66" transform="translate(62.639 61.306)" fill="#f2f2f2"/></g></g><g transform="translate(0)"><path d="M4,0H389.637a4,4,0,0,1,4,4V15.554a0,0,0,0,1,0,0H0a0,0,0,0,1,0,0V4A4,4,0,0,1,4,0Z" fill="#00A6F4"/><ellipse cx="3.589" cy="4.188" rx="3.589" ry="4.188" transform="translate(8.375 3.589)" fill="#fff"/><ellipse cx="3.589" cy="4.188" rx="3.589" ry="4.188" transform="translate(20.34 3.589)" fill="#fff"/><ellipse cx="3.589" cy="4.188" rx="3.589" ry="4.188" transform="translate(32.305 3.589)" fill="#fff"/></g></g></g></svg>